<svg xmlns="http://www.w3.org/2000/svg" xmlns:xlink="http://www.w3.org/1999/xlink" width="1080" zoomAndPan="magnify" viewBox="0 0 810 809.999993" height="1080" preserveAspectRatio="xMidYMid meet" version="1.0"><defs><g/><clipPath id="937492a8f5"><path d="M 460 51.183594 L 640 51.183594 L 640 426 L 460 426 Z M 460 51.183594 " clip-rule="nonzero"/></clipPath></defs><g clip-path="url(#937492a8f5)"><path fill="#fda921" d="M 639.089844 296.667969 C 637.632812 314 633.445312 330.75 626.53125 346.71875 C 626.335938 347.207031 625.949219 347.695312 625.65625 348.179688 C 620.007812 359.574219 614.460938 370.964844 606.28125 380.800781 C 593.136719 396.769531 577.851562 409.917969 558.089844 417.121094 C 542.316406 422.867188 526.15625 424.230469 509.699219 420.140625 C 506.390625 419.363281 503.273438 417.902344 500.644531 415.757812 C 497.140625 412.9375 495.292969 409.332031 495.875 404.757812 C 496.945312 395.117188 502.007812 387.421875 508.335938 380.507812 C 519.046875 368.824219 532.871094 362.105469 547.476562 356.945312 C 562.273438 351.6875 575.613281 344.089844 586.128906 332.015625 C 596.644531 319.941406 604.042969 306.308594 609.105469 291.214844 C 611.929688 282.746094 614.070312 274.175781 615.726562 265.410156 C 615.824219 264.828125 616.015625 264.339844 615.335938 263.949219 C 610.664062 279.53125 604.042969 294.039062 594.113281 306.992188 C 580.1875 325.199219 562.957031 339.515625 542.804688 350.324219 C 529.757812 357.335938 516.027344 362.980469 503.957031 371.84375 C 497.921875 376.324219 492.371094 381.289062 488.085938 387.421875 C 480.589844 398.132812 478.546875 409.722656 482.828125 422.1875 C 483.121094 423.0625 483.996094 423.9375 483.316406 425.011719 C 476.792969 420.140625 470.953125 414.6875 466.960938 407.484375 C 465.304688 404.464844 463.746094 401.347656 463.164062 397.941406 C 459.65625 387.910156 460.4375 377.878906 462.871094 367.851562 C 466.667969 352.5625 475.625 340.585938 486.527344 329.679688 C 496.75 319.359375 508.433594 310.886719 520.3125 302.609375 C 533.261719 293.554688 545.429688 283.71875 554.195312 270.183594 C 564.902344 253.433594 570.550781 235.128906 571.230469 215.359375 C 572.011719 192.378906 566.460938 170.761719 557.503906 149.828125 C 551.953125 136.777344 545.722656 123.925781 540.5625 110.679688 C 533.554688 92.863281 532.09375 74.75 536.183594 56.054688 C 536.472656 54.691406 536.667969 53.425781 537.15625 51.183594 C 537.644531 53.714844 537.933594 55.46875 538.421875 57.222656 C 543.09375 77.476562 553.21875 95.101562 564.613281 112.042969 C 575.710938 128.402344 588.269531 143.59375 599.464844 159.855469 C 611.050781 176.605469 620.300781 194.621094 627.410156 213.800781 C 637.339844 240.679688 641.429688 268.136719 639.089844 296.667969 Z M 639.089844 296.667969 " fill-opacity="1" fill-rule="nonzero"/></g><path fill="#df3239" d="M 529.660156 240.582031 C 524.886719 255.1875 516.417969 267.261719 503.664062 276.023438 C 502.59375 276.804688 501.621094 277.875 500.0625 277.195312 C 511.257812 261.320312 517.101562 243.40625 519.730469 224.417969 C 522.355469 205.429688 520.996094 186.632812 515.347656 168.230469 C 515.835938 171.054688 515.347656 173.878906 515.640625 176.800781 C 516.320312 185.078125 516.125 193.351562 515.054688 201.726562 C 514.375 207.472656 514.472656 213.414062 513.398438 219.253906 C 509.117188 241.554688 502.007812 262.78125 488.378906 281.285156 C 481.660156 290.4375 473.582031 298.324219 466.082031 306.796875 C 456.25 317.800781 448.070312 329.777344 444.273438 344.285156 C 439.210938 363.566406 441.9375 381.96875 451.675781 399.304688 C 461.019531 416.050781 475.039062 426.859375 493.832031 431.242188 C 494.707031 431.4375 495.582031 431.632812 496.460938 431.925781 C 496.847656 432.019531 497.140625 432.410156 497.824219 432.898438 C 486.722656 434.84375 476.304688 432.703125 466.375 428.320312 C 435.902344 415.078125 416.039062 392.195312 406.695312 360.351562 C 401.339844 342.046875 400.753906 323.351562 403.089844 304.554688 C 405.625 283.425781 415.164062 265.214844 426.554688 247.6875 C 434.441406 235.515625 442.328125 223.246094 446.613281 209.128906 C 454.304688 183.808594 445.539062 158.6875 424.316406 146.027344 C 423.34375 145.445312 422.367188 144.957031 421.101562 144.277344 C 422.367188 143.691406 423.34375 144.179688 424.316406 144.566406 C 446.222656 152.648438 459.367188 168.425781 464.039062 191.113281 C 467.058594 205.816406 463.453125 219.546875 456.152344 232.5 C 447.585938 247.589844 439.503906 262.878906 435.316406 279.824219 C 433.566406 287.027344 432.589844 294.234375 432.496094 301.734375 C 435.21875 291.019531 439.601562 280.894531 444.957031 271.351562 C 447.390625 262.878906 451.773438 255.382812 456.152344 247.785156 C 462.871094 236.101562 470.171875 224.804688 476.988281 213.21875 C 484.972656 199.78125 491.007812 185.660156 493.539062 170.082031 C 497.628906 144.375 491.496094 121.488281 474.457031 101.625 C 462.1875 87.3125 447.292969 77.28125 429.183594 71.925781 C 423.632812 70.269531 417.988281 69.199219 412.144531 69.101562 C 437.945312 62.089844 473.675781 75.820312 497.140625 103.28125 C 496.070312 105.226562 497.335938 105.324219 498.699219 105.324219 L 498.699219 105.226562 C 498.894531 105.519531 499.1875 105.714844 499.378906 106.007812 C 499.574219 106.203125 499.671875 106.398438 499.867188 106.6875 C 509.992188 118.472656 517.683594 131.617188 523.332031 146.125 C 525.765625 152.457031 528.394531 158.6875 529.855469 165.308594 C 531.898438 174.363281 533.457031 183.519531 534.332031 192.867188 C 535.695312 209.128906 534.722656 225 529.660156 240.582031 Z M 628.285156 453.445312 C 628.382812 452.371094 627.699219 451.496094 627.214844 450.71875 C 623.417969 444.484375 618.0625 440.105469 611.539062 437.183594 C 596.933594 430.753906 581.648438 430.5625 566.167969 432.019531 C 552.636719 433.289062 539.492188 437.085938 526.152344 439.519531 C 495.582031 445.070312 466.960938 440.394531 440.476562 423.648438 C 428.792969 416.246094 418.570312 407.191406 410.101562 396.1875 C 401.144531 384.503906 394.328125 371.648438 389.949219 357.625 C 383.035156 334.839844 379.726562 311.761719 384.984375 288.003906 C 388.78125 270.667969 392.867188 253.628906 389.949219 235.515625 C 387.613281 221.398438 382.644531 209.03125 372.714844 198.804688 C 372.421875 198.515625 372.132812 198.515625 371.839844 199 C 373.105469 201.726562 374.46875 204.550781 375.34375 207.570312 C 379.433594 221.882812 377.097656 236.101562 373.785156 250.125 C 370.476562 264.144531 364.539062 277.292969 359.378906 290.632812 C 351.003906 312.640625 346.914062 335.132812 350.128906 358.792969 C 353.4375 383.234375 363.855469 404.269531 380.601562 422.1875 C 406.207031 449.742188 438.335938 463.765625 475.625 466.296875 C 498.894531 467.855469 521.285156 463.472656 543.191406 455.878906 C 556.433594 451.300781 569.769531 446.824219 583.886719 445.652344 C 599.269531 444.386719 614.363281 445.265625 628.089844 453.640625 Z M 628.285156 453.445312 " fill-opacity="1" fill-rule="nonzero"/><path stroke-linecap="butt" transform="matrix(1.673287, 0, 0, 1.673287, 168.361034, 46.372638)" fill="none" stroke-linejoin="miter" d="M 55.697305 92.18759 L 55.697305 88.933328 L 107.219221 88.933328 L 107.219221 92.18759 C 107.219221 92.18759 106.136023 92.801557 103.967294 94.031827 C 101.798564 95.206069 99.571473 97.72497 97.283685 101.593199 C 94.998232 105.403066 93.504166 111.264939 92.801488 119.178817 L 92.801488 340.295848 L 57.104995 402.983569 L 54.994627 402.983569 C 59.040276 389.971192 62.497637 376.811743 65.369045 363.507556 C 68.301148 350.20337 69.764865 336.691415 69.764865 322.97636 L 69.764865 320.865992 C 69.764865 286.752274 69.764865 252.610542 69.764865 218.440796 C 69.764865 184.210354 69.764865 150.038274 69.764865 115.924556 C 69.003826 108.949137 67.479412 103.792277 65.193959 100.45164 C 62.966867 97.111003 60.826151 94.911925 58.77648 93.856741 C 56.724475 92.743195 55.697305 92.18759 55.697305 92.18759 Z M 192.189529 341.00086 L 148.933997 222.131605 L 148.933997 316.117665 C 149.461589 322.623854 150.780569 327.430543 152.890937 330.537732 C 155.059666 333.644922 157.167699 335.636231 159.219705 336.516329 C 161.27171 337.33573 162.296546 337.746598 162.296546 337.746598 L 162.296546 341.00086 L 113.67872 341.00086 L 113.67872 337.746598 C 113.67872 337.746598 114.703555 337.33573 116.755561 336.516329 C 118.805232 335.636231 120.887586 333.644922 122.997954 330.537732 C 125.166683 327.430543 126.513677 322.623854 127.041268 316.117665 L 127.041268 121.728067 C 127.041268 113.286596 125.839013 106.985842 123.436835 102.825803 C 121.034658 98.605068 118.688508 95.792023 116.403055 94.384333 C 114.117602 92.918281 112.973708 92.18759 112.973708 92.18759 L 112.973708 88.933328 L 163.35173 88.933328 L 163.35173 92.18759 C 163.35173 92.18759 162.151808 92.918281 159.747297 94.384333 C 157.34512 95.792023 154.940608 98.721792 152.538431 103.175975 C 150.136253 107.571796 148.933997 114.460839 148.933997 123.838434 L 148.933997 199.097317 L 189.992786 123.485928 C 192.630745 119.384251 193.949725 115.427312 193.949725 111.617445 C 193.949725 107.279986 192.570049 103.675553 189.815366 100.801811 C 187.060682 97.930404 184.364361 95.792023 181.728736 94.384333 C 179.090776 92.918281 177.771797 92.18759 177.771797 92.18759 L 178.121968 88.933328 L 216.631508 88.933328 L 216.281336 91.835084 L 150.428063 211.757188 L 170.562931 211.757188 L 206.609596 310.402865 C 210.183681 319.019421 213.585015 325.261813 216.808928 329.130042 C 220.091203 332.939909 222.726828 335.286059 224.720472 336.163823 C 226.772477 336.985559 227.797313 337.396427 227.797313 337.396427 L 227.797313 341.00086 Z M 192.189529 341.00086 " stroke="#ffffff" stroke-width="27.009075" stroke-opacity="1" stroke-miterlimit="4"/><g fill="#0097b2" fill-opacity="1"><g transform="translate(255.528814, 616.963405)"><g><path d="M 6.03125 -416.375 L 6.03125 -421.8125 L 92.1875 -421.8125 L 92.1875 -416.375 C 92.1875 -416.375 90.378906 -415.367188 86.765625 -413.359375 C 83.148438 -411.359375 79.4375 -407.144531 75.625 -400.71875 C 71.8125 -394.289062 69.300781 -384.445312 68.09375 -371.1875 L 68.09375 -1.203125 L 8.4375 103.640625 L 4.828125 103.640625 C 11.648438 81.953125 17.472656 59.957031 22.296875 37.65625 C 27.117188 15.363281 29.53125 -7.226562 29.53125 -30.125 L 29.53125 -33.75 C 29.53125 -90.789062 29.53125 -147.929688 29.53125 -205.171875 C 29.53125 -262.421875 29.53125 -319.566406 29.53125 -376.609375 C 28.320312 -388.265625 25.804688 -396.898438 21.984375 -402.515625 C 18.171875 -408.140625 14.554688 -411.851562 11.140625 -413.65625 C 7.734375 -415.46875 6.03125 -416.375 6.03125 -416.375 Z M 6.03125 -416.375 "/></g></g></g><g fill="#0097b2" fill-opacity="1"><g transform="translate(352.544694, 616.963405)"><g><path d="M 137.390625 0 L 65.078125 -198.84375 L 65.078125 -41.578125 C 65.878906 -30.734375 68.085938 -22.695312 71.703125 -17.46875 C 75.316406 -12.25 78.832031 -8.9375 82.25 -7.53125 C 85.664062 -6.125 87.375 -5.421875 87.375 -5.421875 L 87.375 0 L 6.03125 0 L 6.03125 -5.421875 C 6.03125 -5.421875 7.734375 -6.125 11.140625 -7.53125 C 14.554688 -8.9375 18.070312 -12.25 21.6875 -17.46875 C 25.300781 -22.695312 27.515625 -30.734375 28.328125 -41.578125 L 28.328125 -366.96875 C 28.328125 -381.03125 26.316406 -391.578125 22.296875 -398.609375 C 18.273438 -405.640625 14.359375 -410.359375 10.546875 -412.765625 C 6.734375 -415.171875 4.828125 -416.375 4.828125 -416.375 L 4.828125 -421.8125 L 89.1875 -421.8125 L 89.1875 -416.375 C 89.1875 -416.375 87.175781 -415.171875 83.15625 -412.765625 C 79.132812 -410.359375 75.113281 -405.4375 71.09375 -398 C 67.082031 -390.570312 65.078125 -379.023438 65.078125 -363.359375 L 65.078125 -237.421875 L 133.765625 -363.953125 C 138.191406 -370.785156 140.40625 -377.414062 140.40625 -383.84375 C 140.40625 -391.070312 138.09375 -397.097656 133.46875 -401.921875 C 128.851562 -406.742188 124.332031 -410.359375 119.90625 -412.765625 C 115.488281 -415.171875 113.28125 -416.375 113.28125 -416.375 L 113.890625 -421.8125 L 178.359375 -421.8125 L 177.765625 -416.984375 L 67.484375 -216.328125 L 101.234375 -216.328125 L 161.484375 -51.21875 C 167.515625 -36.757812 173.238281 -26.316406 178.65625 -19.890625 C 184.082031 -13.460938 188.503906 -9.546875 191.921875 -8.140625 C 195.335938 -6.734375 197.046875 -6.03125 197.046875 -6.03125 L 197.046875 0 Z M 137.390625 0 "/></g></g></g></svg>